<svg width="89" height="88" viewBox="0 0 89 88" fill="none" xmlns="http://www.w3.org/2000/svg" matTooltip="Aprendi na Origamid e Udemy">
<path d="M0 76.6532C0 82.9204 5.13801 88 11.4758 88H77.5239C83.8627 88 89 82.9197 89 76.6532V11.3472C89 5.07959 83.862 0 77.5242 0H11.4761C5.13732 0 0 5.08028 0 11.3468V76.6532Z" fill="#0E0E0E"/>
<path d="M36.9063 38.9256V26.4636H48.0004C49.0572 26.4636 50.0759 26.5506 51.0569 26.7248C52.038 26.8988 52.9061 27.2095 53.6609 27.6574C54.4153 28.1053 55.0192 28.7272 55.4722 29.523C55.9248 30.3191 56.1515 31.339 56.1515 32.5823C56.1515 34.8212 55.4722 36.4382 54.1135 37.433C52.7553 38.4282 51.0194 38.9256 48.906 38.9256H36.9063ZM25.0571 17.3594V70.6406H51.1703C53.5855 70.6406 55.9377 70.3423 58.227 69.7452C60.5163 69.1481 62.5539 68.2278 64.3402 66.9842C66.1261 65.7405 67.5477 64.1358 68.6042 62.171C69.6611 60.2057 70.1892 57.8799 70.1892 55.1935C70.1892 51.8602 69.3715 49.0122 67.7365 46.6493C66.1011 44.286 63.623 42.6319 60.3022 41.6866C62.7173 40.5426 64.5415 39.0747 65.7743 37.2838C67.0067 35.4929 67.6231 33.2544 67.6231 30.5676C67.6231 28.0803 67.208 25.9909 66.3778 24.2993C65.5476 22.6081 64.3777 21.2523 62.8682 20.2324C61.3591 19.2125 59.5478 18.4786 57.4344 18.0311C55.3213 17.5832 52.9816 17.3594 50.4155 17.3594H25.0571ZM36.9063 61.5364V46.9102H49.8116C52.3777 46.9102 54.4407 47.4946 56.0006 48.664C57.5602 49.8331 58.3404 51.7856 58.3404 54.5218C58.3404 55.9151 58.1012 57.0591 57.6231 57.9545C57.1451 58.85 56.5037 59.5592 55.6985 60.0813C54.8937 60.6038 53.9627 60.9768 52.9061 61.2009C51.8493 61.4243 50.7427 61.5364 49.5853 61.5364H36.9063Z" fill="#E9E9E9"/>
</svg>
