<svg width="52" height="78" viewBox="0 0 52 78" fill="none" xmlns="http://www.w3.org/2000/svg" matTooltip="Aprendi na Origamid">
<path d="M12.7398 0H25.4285V25.2784H12.7398C-3.99327 24.6269 -4.16224 0.68432 12.7398 0ZM12.7398 51.638H25.4285V26.3596H12.7398C-4.16224 27.0439 -3.99327 50.9864 12.7398 51.638ZM39.2027 0H26.5139V25.2784H39.2027C56.1612 24.3744 55.95 0.516007 39.2027 0ZM25.4285 65.3585V52.7192H12.7398C2.38547 52.7192 -4.16224 64.8116 3.03894 73.4971C9.90477 82.1058 25.4285 77.8138 25.4285 65.3585ZM51.9174 38.9988C51.9174 29.2855 41.2884 23.1817 32.8311 28.0383C24.3738 32.895 24.3738 45.1026 32.8311 49.9593C41.2884 54.816 51.9174 48.7122 51.9174 38.9988Z" fill="#0E0E0E"/>
</svg>
