<svg width="79" height="78" viewBox="0 0 79 78" fill="none" xmlns="http://www.w3.org/2000/svg" matTooltip="Utilizo em qualquer projeto ou aula">
<path d="M77.0528 35.4159L43.1015 1.46663C41.1476 -0.488878 37.9765 -0.488878 36.0202 1.46663L28.9706 8.51704L37.9132 17.4602C39.992 16.7582 42.3749 17.229 44.0313 18.8858C45.6965 20.5526 46.1639 22.9559 45.4445 25.0418L54.0634 33.6607C56.1489 32.9422 58.5547 33.4067 60.2198 35.0747C62.5478 37.4018 62.5478 41.1728 60.2198 43.5007C57.8915 45.8295 54.1205 45.8295 51.7913 43.5007C50.0408 41.749 49.6079 39.1774 50.4944 37.0206L42.4562 28.982L42.4553 50.1351C43.0232 50.4159 43.5585 50.7908 44.0313 51.262C46.3588 53.5887 46.3588 57.3593 44.0313 59.6898C41.7034 62.0168 37.9307 62.0168 35.6052 59.6898C33.2777 57.3593 33.2777 53.5887 35.6052 51.262C36.1806 50.6875 36.8458 50.253 37.5562 49.9618V28.6124C36.8458 28.3221 36.1814 27.8905 35.6052 27.3122C33.8422 25.5505 33.4177 22.963 34.3217 20.798L25.5061 11.9807L2.22672 35.2588C0.270781 37.216 0.270781 40.3871 2.22672 42.3426L36.1781 76.2919C38.1327 78.2474 41.3031 78.2474 43.2602 76.2919L77.0528 42.5001C79.0084 40.5438 79.0084 37.3714 77.0528 35.4159Z" fill="#0E0E0E"/>
</svg>
