<svg width="79" height="88" viewBox="0 0 79 88" fill="none" xmlns="http://www.w3.org/2000/svg" matTooltip="Aprendi na Udemy e em projetos">
<path fill-rule="evenodd" clip-rule="evenodd" d="M46.8644 10.0351L64.8299 20.4316C65.3486 19.8816 65.9438 19.4095 66.5971 19.03C70.3229 16.8831 75.0754 18.1578 77.2396 21.8923C79.3816 25.6269 78.1098 30.3898 74.3837 32.5589C73.7353 32.9332 73.0365 33.212 72.3088 33.3869V54.1876C73.0285 54.3628 73.7197 54.6398 74.3616 55.0102C78.1098 57.1793 79.3816 61.9425 77.2174 65.677C75.0754 69.4112 70.3007 70.6859 66.5747 68.5393C65.8528 68.1242 65.2025 67.5951 64.6489 66.9724L46.7927 77.305C47.0542 78.0986 47.187 78.9291 47.1861 79.7648C47.1861 84.0583 43.7057 87.5693 39.3995 87.5693C35.0932 87.5693 31.6129 84.0805 31.6129 79.7648C31.6129 78.9976 31.7228 78.2566 31.9278 77.5567L13.9672 67.1633C13.4542 67.7024 12.8674 68.1657 12.2243 68.5393C8.47601 70.6859 3.72355 69.4112 1.58152 65.677C-0.560217 61.9425 0.711579 57.1793 4.43736 55.0102C5.07921 54.6397 5.77038 54.3626 6.4901 54.1873V33.3869C5.76243 33.212 5.06365 32.9332 4.41519 32.5589C0.689101 30.4123 -0.582695 25.6269 1.55934 21.8923C3.70138 18.1578 8.4757 16.8831 12.2018 19.03C12.8515 19.4075 13.4438 19.8766 13.9605 20.4228L31.9312 10.0236C31.7193 9.30294 31.6121 8.55549 31.6129 7.80423C31.6129 3.48884 35.0932 0 39.3995 0C43.7057 0 47.1861 3.48854 47.1861 7.80423C47.1861 8.57993 47.0737 9.32854 46.8644 10.0351ZM44.9927 13.2384L63.0011 23.6593C62.7143 24.6639 62.6321 25.7161 62.7592 26.7533C62.8864 27.7905 63.2204 28.7914 63.7413 29.6966C64.8375 31.6078 66.6233 32.8749 68.6052 33.3687V54.1952C68.5041 54.2198 68.4035 54.2469 68.3036 54.2756L44.7834 13.447C44.8545 13.3788 44.9244 13.3094 44.9927 13.2387V13.2384ZM34.0204 13.4515L10.5005 54.2795C10.3988 54.25 10.2965 54.2226 10.1937 54.1973V33.3687C12.1757 32.8749 13.9614 31.6078 15.0576 29.6966C15.5796 28.7896 15.9139 27.7866 16.0405 26.7474C16.1672 25.7081 16.0836 24.6539 15.7948 23.6477L33.798 13.2299C33.8706 13.3051 33.9447 13.3791 34.0204 13.4512V13.4515ZM41.5752 15.301L65.0896 56.1198C64.551 56.635 64.0893 57.2252 63.7188 57.8725C63.3492 58.5158 63.0729 59.2085 62.8981 59.9299H15.9015C15.7264 59.2085 15.4499 58.5158 15.0801 57.8725C14.7083 57.2297 14.2475 56.643 13.7114 56.1299L37.2304 15.3028C37.9355 15.5063 38.6657 15.6092 39.3995 15.6085C40.1549 15.6085 40.8848 15.5013 41.5752 15.301ZM45.1579 74.5072L63.0493 64.1539C62.9957 63.9849 62.9478 63.8141 62.9057 63.6418H15.8914C15.8665 63.7432 15.8395 63.8437 15.8106 63.9438L33.7895 74.348C34.5156 73.5913 35.3869 72.9897 36.351 72.5794C37.3151 72.1691 38.352 71.9586 39.3995 71.9606C40.4835 71.9587 41.5559 72.1843 42.5477 72.6229C43.5395 73.0615 44.4286 73.7034 45.1579 74.5072V74.5072Z" fill="#0E0E0E"/>
</svg>
