<svg width="68" height="83" viewBox="0 0 68 83" fill="none" xmlns="http://www.w3.org/2000/svg" matTooltip="Aprendi na Origamid">
<path d="M0.00739075 2.72861L5.05415 71.1667C5.12991 72.1943 5.78617 73.0707 6.71324 73.3823L33.2694 82.307C33.739 82.4648 34.2432 82.4648 34.7128 82.307L61.269 73.3823C62.1961 73.0707 62.8523 72.1943 62.9281 71.1667L67.9748 2.72861C68.0834 1.25722 66.9863 0 65.5941 0H2.38829C0.996074 0 -0.10097 1.25722 0.00739075 2.72861ZM55.0328 23.9626H22.1421L23.1347 33.6652H54.3174L52.2775 61.3259L33.9912 67.4713L15.7049 61.3259L14.6392 46.8748H24.2373V53.9633L34.2477 56.8111L44.1983 53.9633L44.9702 42.6663H14.3288L12.2945 15.0782H55.6878L55.0328 23.9626Z" fill="#0E0E0E"/>
</svg>
