<svg width="86" height="85" viewBox="0 0 86 85" fill="none" xmlns="http://www.w3.org/2000/svg" matTooltip="Aprendi na Udemy">
<path d="M39.7264 35.1113H46.3756L48.0276 32.8669V15.2913H38.0757V32.8689L39.7264 35.1113ZM35.4409 42.9503L37.4949 36.7113L35.8426 34.4679L18.9015 29.0366L15.8267 38.3753L32.7698 43.8073L35.4409 42.9506M41.6723 49.3956L36.2937 45.5389L33.6199 46.3963L23.1504 60.6163L31.2014 66.3873L41.6723 52.1673V49.3956ZM49.8096 45.5379L44.4297 49.3946L44.4311 52.1679L54.9009 66.3873L62.9522 60.6159L52.4804 46.3949L49.8099 45.5383M48.606 36.7099L50.6611 42.9499L53.3342 43.8063L70.2757 38.3753L67.1998 29.0359L50.258 34.4683L48.606 36.7099Z" fill="#0E0E0E"/>
<path d="M43.053 0.0352783C19.385 0.0352783 0.128906 19.0333 0.128906 42.3839C0.128906 65.7433 19.385 84.7463 43.0536 84.7463C66.7196 84.7463 85.9737 65.7433 85.9737 42.3839C85.9737 19.0329 66.7196 0.0352783 43.0536 0.0352783H43.053ZM43.053 8.61028C61.9544 8.61028 77.2818 23.7293 77.2818 42.3836C77.2818 61.0446 61.9544 76.1703 43.053 76.1703C24.1458 76.1703 8.82013 61.0446 8.82013 42.3836C8.82013 23.7293 24.1458 8.61028 43.0533 8.61028H43.053Z" fill="#0E0E0E"/>
<path d="M69.0503 51.7969L56.1723 47.6679L57.0238 45.0796L69.9018 49.2086L69.0503 51.7969ZM52.6262 31.3966L50.3941 29.7972L58.3527 18.9876L60.5844 20.5872L52.6262 31.3966ZM33.6146 31.2982L25.657 20.4882L27.8887 18.8889L35.8463 29.6982L33.6146 31.2982ZM16.9993 51.6356L16.1475 49.0472L29.0241 44.9199L29.8763 47.5082L16.9993 51.6356ZM41.5873 69.3862H44.3454V56.0246H41.5876L41.5873 69.3862Z" fill="#0E0E0E"/>
</svg>
