<svg width="84" height="84" viewBox="0 0 84 84" fill="none" xmlns="http://www.w3.org/2000/svg" matTooltip="Aprendi na Origamid e Udemy">
<path fill-rule="evenodd" clip-rule="evenodd" d="M48.3422 22.596L48.2582 0H35.6582L35.7422 22.596L42.0422 31.248L48.3422 22.596ZM35.7422 61.32V84H48.3422V61.32L42.0422 52.668L35.7422 61.32Z" fill="#0E0E0E"/>
<path fill-rule="evenodd" clip-rule="evenodd" d="M48.3422 61.32L61.6142 79.632L71.7782 72.24L58.5062 53.928L48.3422 50.652V61.32ZM35.7422 22.596L22.3862 4.284L12.2222 11.676L25.4942 29.988L35.7422 33.264V22.596Z" fill="#0E0E0E"/>
<path fill-rule="evenodd" clip-rule="evenodd" d="M25.494 29.988L3.98998 23.016L0.125977 34.944L21.63 42L31.794 38.64L25.494 29.988ZM52.206 45.276L58.506 53.928L80.01 60.9L83.874 48.972L62.37 42L52.206 45.276Z" fill="#0E0E0E"/>
<path fill-rule="evenodd" clip-rule="evenodd" d="M62.37 42L83.874 34.944L80.01 23.016L58.506 29.988L52.206 38.64L62.37 42ZM21.63 42L0.125977 48.972L3.98998 60.9L25.494 53.928L31.794 45.276L21.63 42Z" fill="#0E0E0E"/>
<path fill-rule="evenodd" clip-rule="evenodd" d="M25.4942 53.928L12.2222 72.24L22.3862 79.632L35.7422 61.32V50.652L25.4942 53.928ZM58.5062 29.988L71.7782 11.676L61.6142 4.284L48.3422 22.596V33.264L58.5062 29.988Z" fill="#0E0E0E"/>
</svg>
