<svg width="78" height="78" viewBox="0 0 78 78" fill="none" xmlns="http://www.w3.org/2000/svg" matTooltip="Aprendi na Udemy e em projetos">
<path d="M36.2944 0.020906C36.1274 0.036092 35.5959 0.0892428 35.1175 0.127208C24.0849 1.12189 13.7509 7.07478 7.20574 16.2243C3.56111 21.3116 1.23006 27.0823 0.349277 33.1946C0.0379649 35.3283 0 35.9585 0 38.8514C0 41.7443 0.0379649 42.3745 0.349277 44.5082C2.46013 59.0943 12.8397 71.3494 26.9171 75.89C29.438 76.7024 32.0955 77.2567 35.1175 77.5908C36.2944 77.7199 41.3817 77.7199 42.5587 77.5908C47.775 77.0137 52.1941 75.7229 56.5525 73.4982C57.2207 73.1565 57.3498 73.0654 57.2587 72.9894C57.1979 72.9439 54.3505 69.1246 50.9337 64.5081L44.7227 56.1178L36.9398 44.5993C32.6574 38.2667 29.1343 33.0883 29.1039 33.0883C29.0735 33.0807 29.0431 38.1984 29.028 44.4474C29.0052 55.3889 28.9976 55.8293 28.8609 56.0875C28.6635 56.4595 28.5116 56.6114 28.1927 56.7784C27.9498 56.8999 27.7372 56.9227 26.5906 56.9227H25.277L24.9278 56.7025C24.7 56.5582 24.5329 56.3684 24.419 56.1482L24.2596 55.8065L24.2748 40.5826L24.2975 25.3511L24.5329 25.055C24.6544 24.8955 24.9126 24.6905 25.0948 24.5918C25.4061 24.4399 25.5276 24.4247 26.8412 24.4247C28.3902 24.4247 28.6483 24.4855 29.0507 24.9259C29.1646 25.0474 33.3787 31.3951 38.4205 39.0412C43.4622 46.6874 50.3566 57.1277 53.7431 62.253L59.8934 71.5696L60.2047 71.3645C62.961 69.5726 65.8767 67.0214 68.185 64.3638C73.0976 58.7222 76.2639 51.843 77.3269 44.5082C77.6382 42.3745 77.6762 41.7443 77.6762 38.8514C77.6762 35.9585 77.6382 35.3283 77.3269 33.1946C75.2161 18.6085 64.8365 6.35345 50.7591 1.81285C48.2762 1.00799 45.6338 0.453706 42.6725 0.119615C41.9436 0.0436849 36.9247 -0.0398378 36.2944 0.020906V0.020906ZM52.1941 23.5136C52.5586 23.6958 52.8547 24.0451 52.961 24.4096C53.0218 24.607 53.037 28.8287 53.0218 38.3427L52.999 51.9949L50.592 48.3047L48.1775 44.6145V34.6905C48.1775 28.2744 48.2078 24.6677 48.2534 24.4931C48.3749 24.0679 48.6406 23.7338 49.0051 23.5364C49.3164 23.3769 49.4303 23.3617 50.6224 23.3617C51.7462 23.3617 51.9436 23.3769 52.1941 23.5136V23.5136Z" fill="#0E0E0E"/>
<path d="M59.5141 71.7366C59.2483 71.9036 59.1648 72.0175 59.4002 71.8885C59.5672 71.7898 59.8406 71.5847 59.795 71.5771C59.7722 71.5771 59.6431 71.6531 59.5141 71.7366ZM58.9901 72.0783C58.8535 72.1846 58.8535 72.1922 59.0205 72.1087C59.1116 72.0631 59.1876 72.0099 59.1876 71.9948C59.1876 71.934 59.1496 71.9492 58.9901 72.0783ZM58.6105 72.3061C58.4738 72.4124 58.4738 72.42 58.6409 72.3364C58.732 72.2909 58.8079 72.2377 58.8079 72.2226C58.8079 72.1618 58.77 72.177 58.6105 72.3061ZM58.2308 72.5339C58.0942 72.6402 58.0942 72.6478 58.2612 72.5642C58.3523 72.5187 58.4283 72.4655 58.4283 72.4503C58.4283 72.3896 58.3903 72.4048 58.2308 72.5339ZM57.6538 72.8376C57.3652 72.9894 57.3804 73.0502 57.669 72.9059C57.798 72.8376 57.8968 72.7692 57.8968 72.7541C57.8968 72.7009 57.8892 72.7085 57.6538 72.8376Z" fill="#0E0E0E"/>
</svg>
