<svg width="76" height="84" viewBox="0 0 76 84" fill="none" xmlns="http://www.w3.org/2000/svg" matTooltip="Aprendi em projetos">
<path d="M34.571 0.892429C36.6476 -0.294793 39.3524 -0.300156 41.4273 0.892429C51.8656 6.78355 62.3072 12.6654 72.7437 18.5601C74.7067 19.6645 76.0198 21.8465 75.9998 24.1057V59.5489C76.0144 61.9016 74.5716 64.1358 72.5006 65.2151C62.0966 71.0738 51.698 76.9396 41.2957 82.7982C39.1761 84.0087 36.417 83.9154 34.3637 82.6058C31.2446 80.7998 28.1201 79.0027 25.0006 77.1985C24.3632 76.8189 23.6447 76.5168 23.1946 75.8995C23.5925 75.3639 24.3039 75.2971 24.8819 75.0633C26.1839 74.6498 27.3797 73.986 28.5758 73.3419C28.8783 73.1351 29.2476 73.2144 29.5375 73.3994C32.2047 74.9268 34.8484 76.4987 37.5246 78.0115C38.0955 78.3407 38.6735 77.9037 39.1615 77.632C49.3711 71.8686 59.5931 66.1271 69.8009 60.362C70.1791 60.1802 70.3882 59.7792 70.3575 59.3654C70.3647 47.6734 70.3593 35.9794 70.3611 24.2874C70.4043 23.8179 70.1323 23.3862 69.7072 23.194C59.3393 17.3622 48.9767 11.5214 38.6106 5.68809C38.431 5.56477 38.2182 5.4986 38.0003 5.49828C37.7823 5.49796 37.5694 5.5635 37.3894 5.6863C27.0233 11.5214 16.6625 17.3676 6.29636 23.1991C5.87281 23.3916 5.58854 23.8161 5.63895 24.2874C5.64074 35.9794 5.63895 47.6734 5.63895 59.3672C5.62098 59.5691 5.66538 59.7717 5.76617 59.9476C5.86697 60.1236 6.01932 60.2644 6.2027 60.3513C8.96896 61.918 11.7388 63.4738 14.5068 65.0352C16.0662 65.8735 17.9809 66.3717 19.699 65.7294C21.2152 65.1862 22.2779 63.6409 22.249 62.033C22.2633 50.4093 22.2419 38.7837 22.2597 27.1618C22.2219 26.6458 22.7119 26.2194 23.2142 26.268C24.5434 26.2591 25.8743 26.2501 27.2034 26.2716C27.7583 26.2591 28.14 26.8147 28.0714 27.3346C28.0661 39.0319 28.0858 50.7295 28.0625 62.4269C28.0661 65.5443 26.7838 68.9365 23.8967 70.4619C20.34 72.3021 15.944 71.9118 12.4302 70.1472C9.38834 68.6308 6.48547 66.8412 3.4976 65.2166C1.42127 64.1432 -0.014359 61.9002 0.00025673 59.5492V24.1057C-0.0215178 21.7998 1.34371 19.5781 3.36785 18.4898C13.7701 12.6264 24.1705 6.75853 34.571 0.892429Z" fill="#0E0E0E"/>
<path d="M43.646 25.4443C48.1828 25.1526 53.0397 25.2715 57.1223 27.5038C60.2832 29.2145 62.0356 32.8047 62.0914 36.3122C62.0031 36.7853 61.5079 37.0463 61.0557 37.0138C59.7394 37.012 58.4228 37.0317 57.1065 37.0049C56.5481 37.0263 56.2236 36.5121 56.1535 36.019C55.7753 34.3408 54.859 32.6787 53.2775 31.8693C50.8498 30.6552 48.0349 30.7163 45.3877 30.7416C43.4551 30.8441 41.377 31.0112 39.7397 32.1463C38.4828 33.0061 38.101 34.7418 38.5496 36.1397C38.9725 37.1434 40.1325 37.4672 41.0817 37.7657C46.5492 39.194 52.343 39.0519 57.7061 40.9315C59.9265 41.6977 62.0985 43.1873 62.8586 45.5094C63.8527 48.6215 63.4169 52.3413 61.2001 54.8397C59.4024 56.8957 56.7841 58.0147 54.1726 58.6224C50.6985 59.3961 47.0932 59.4158 43.5652 59.0723C40.2477 58.6945 36.7954 57.824 34.2343 55.5663C32.0444 53.6671 30.9747 50.7078 31.0809 47.8516C31.1063 47.3693 31.5871 47.0329 32.0497 47.0726C33.3753 47.0618 34.7009 47.0583 36.0264 47.0743C36.5559 47.0365 36.9484 47.4935 36.9755 47.9919C37.2201 49.5909 37.8218 51.2691 39.2177 52.2171C41.9118 53.9531 45.2922 53.8342 48.377 53.8828C50.9327 53.7696 53.8016 53.7353 55.8871 52.0482C56.9875 51.0859 57.3135 49.4759 57.0161 48.0909C56.694 46.9215 55.4692 46.3766 54.4175 46.0203C49.0201 44.315 43.1616 44.9338 37.8164 43.0053C35.6464 42.2394 33.548 40.7912 32.7143 38.5645C31.551 35.4131 32.084 31.515 34.5332 29.101C36.9213 26.6997 40.3685 25.7753 43.646 25.4443Z" fill="#0E0E0E"/>
</svg>
