<svg width="100" height="51" viewBox="0 0 100 51" fill="none" xmlns="http://www.w3.org/2000/svg" matTooltip="Aprendi na Origamid">
<path d="M50 50.6593C77.6143 50.6593 100 39.3189 100 25.3297C100 11.3405 77.6143 0 50 0C22.3858 0 0 11.3405 0 25.3297C0 39.3189 22.3858 50.6593 50 50.6593Z" fill="#0E0E0E"/>
<path d="M60.1235 33.5157L62.6081 20.7565C63.1727 17.8774 62.702 15.7322 61.2155 14.377C59.7849 13.0597 57.3577 12.4197 53.7819 12.4197H49.4923L50.7148 6.09683C50.7529 5.85218 50.6969 5.60753 50.5462 5.41956C50.3956 5.23158 50.1703 5.11823 49.9249 5.11823H43.9973C43.602 5.11823 43.282 5.4009 43.2067 5.77685L40.5722 19.3259C40.3276 17.8014 39.7443 16.4841 38.8037 15.4115C37.0725 13.417 34.306 12.4197 30.6362 12.4197H19.1383C18.743 12.4197 18.423 12.7024 18.3477 13.0784L13.0034 40.4965C12.9661 40.7419 13.022 40.9866 13.1727 41.1745C13.3233 41.3625 13.5486 41.4759 13.794 41.4759H19.7783C20.1736 41.4759 20.4936 41.1925 20.5689 40.8172L21.8675 34.1736H26.3085C28.6417 34.1736 30.5989 33.929 32.1421 33.421C33.704 32.9123 35.1526 32.0471 36.4138 30.8619C37.4484 29.9206 38.2957 28.8674 38.9357 27.7194L37.8631 33.1957C37.8251 33.4397 37.8818 33.685 38.0324 33.8723C38.1831 34.061 38.4091 34.1736 38.6537 34.1736H44.5813C44.9766 34.1736 45.2966 33.891 45.372 33.515L48.2891 18.4607H52.3542C54.0847 18.4607 54.5934 18.7993 54.7254 18.95C54.8574 19.082 55.1207 19.5713 54.8194 21.0579L52.5042 33.2144C52.4661 33.4598 52.5228 33.7037 52.6735 33.8917C52.8242 34.0796 53.0494 34.193 53.2941 34.193H59.3164C59.7103 34.1744 60.0482 33.911 60.1235 33.5157ZM32.6487 22.9771C32.2727 24.8962 31.5761 26.2508 30.5594 27.0414C29.5249 27.8321 27.8869 28.2267 25.6671 28.2267H23.0133L24.9332 18.366H28.3576C30.8794 18.366 31.8953 18.912 32.2907 19.3633C32.856 19.9853 32.988 21.2272 32.6487 22.9771Z" fill="#F3F3F3"/>
<path d="M85.4713 15.4122C83.7401 13.4177 80.9736 12.4205 77.3038 12.4205H65.8066C65.4113 12.4205 65.0913 12.7031 65.016 13.0791L59.6896 40.5166C59.6516 40.7606 59.709 41.0059 59.8589 41.1932C60.0096 41.3819 60.2356 41.4945 60.4795 41.4945H66.4645C66.8598 41.4945 67.1791 41.2126 67.2551 40.8359L68.5537 34.193H72.9948C75.3279 34.193 77.2851 33.9484 78.8284 33.4397C80.391 32.9324 81.8395 32.0665 83.1001 30.8812C84.154 29.9026 85.0387 28.8114 85.6973 27.6254C86.3559 26.4402 86.8258 25.123 87.1085 23.711C87.7678 20.2106 87.2219 17.4261 85.4713 15.4122ZM79.2804 22.9771C78.9051 24.8963 78.2085 26.2508 77.1926 27.0414C76.1573 27.8321 74.5201 28.2267 72.2996 28.2267H69.6464L71.5656 18.366H74.9907C77.5126 18.366 78.5285 18.912 78.9231 19.3633C79.5064 19.9853 79.619 21.2272 79.2804 22.9771Z" fill="#F3F3F3"/>
</svg>
