<svg width="78" height="70" viewBox="0 0 78 70" fill="none" xmlns="http://www.w3.org/2000/svg" matTooltip="Aprendi na Origamid e Udemy">
<path d="M77.7597 34.6321C77.7597 29.4809 71.3088 24.5991 61.4184 21.5717C63.7008 11.4912 62.6864 3.47113 58.2168 0.903445C57.1865 0.301148 55.9819 0.0158497 54.6664 0.0158497V3.55038C55.3955 3.55038 55.9819 3.69303 56.4733 3.96248C58.6289 5.19877 59.564 9.9062 58.8349 15.9609C58.6606 17.4508 58.3753 19.0199 58.0266 20.6207C54.92 19.86 51.5281 19.2735 47.9619 18.8931C45.8221 15.9609 43.6031 13.2981 41.3683 10.9681C46.5354 6.16562 51.3854 3.53453 54.6822 3.53453V0C50.3235 0 44.6175 3.10659 38.8482 8.49556C33.0788 3.13829 27.3728 0.0633999 23.0141 0.0633999V3.59793C26.295 3.59793 31.1609 6.21317 36.328 10.984C34.109 13.3139 31.89 15.9609 29.782 18.8931C26.1999 19.2735 22.808 19.86 19.7015 20.6366C19.3369 19.0516 19.0675 17.5142 18.8773 16.0401C18.1323 9.98545 19.0516 5.27802 21.1913 4.02588C21.6668 3.74058 22.285 3.61378 23.0141 3.61378V0.0792496C21.6827 0.0792496 20.4781 0.364548 19.432 0.966845C14.9782 3.53453 13.9796 11.5387 16.2779 21.5876C6.41922 24.6308 0 29.4967 0 34.6321C0 39.7833 6.45092 44.6651 16.3413 47.6924C14.0589 57.773 15.0733 65.793 19.543 68.3607C20.5732 68.963 21.7778 69.2483 23.1092 69.2483C27.4679 69.2483 33.1739 66.1417 38.9433 60.7527C44.7126 66.11 50.4186 69.1849 54.7773 69.1849C56.1087 69.1849 57.3133 68.8996 58.3594 68.2973C62.8132 65.7296 63.8118 57.7254 61.5135 47.6766C71.3405 44.6492 77.7597 39.7675 77.7597 34.6321V34.6321ZM57.1231 24.0602C56.5367 26.1048 55.8076 28.2129 54.9834 30.3209C54.3335 29.0529 53.652 27.7849 52.907 26.5169C52.1779 25.2489 51.4013 24.0126 50.6247 22.808C52.8753 23.1409 55.0468 23.553 57.1231 24.0602ZM49.8638 40.9403C48.6276 43.0801 47.3596 45.1089 46.044 46.995C43.6824 47.2011 41.289 47.312 38.8799 47.312C36.4865 47.312 34.0932 47.2011 31.7474 47.0109C30.4318 45.1247 29.148 43.1118 27.9117 40.9879C26.7071 38.9116 25.6135 36.8035 24.6149 34.6796C25.5976 32.5557 26.7071 30.4318 27.8959 28.3555C29.1322 26.2158 30.4001 24.187 31.7157 22.3008C34.0773 22.0948 36.4707 21.9838 38.8799 21.9838C41.2732 21.9838 43.6665 22.0948 46.0123 22.285C47.3279 24.1711 48.6117 26.1841 49.848 28.308C51.0526 30.3843 52.1462 32.4923 53.1448 34.6162C52.1462 36.7401 51.0526 38.864 49.8638 40.9403ZM54.9834 38.8799C55.8393 41.0037 56.5684 43.1276 57.1707 45.1881C55.0943 45.6953 52.907 46.1233 50.6405 46.4561C51.4171 45.2357 52.1938 43.9835 52.9229 42.6997C53.652 41.4317 54.3335 40.1478 54.9834 38.8799ZM38.9116 55.7917C37.4375 54.2701 35.9635 52.5742 34.5053 50.7197C35.9318 50.7831 37.39 50.8307 38.864 50.8307C40.3539 50.8307 41.8279 50.799 43.2703 50.7197C41.8438 52.5742 40.3698 54.2701 38.9116 55.7917ZM27.1192 46.4561C24.8685 46.1233 22.6971 45.7112 20.6207 45.204C21.2072 43.1593 21.9363 41.0513 22.7605 38.9433C23.4103 40.2113 24.0919 41.4792 24.8368 42.7472C25.5818 44.0152 26.3426 45.2515 27.1192 46.4561ZM38.8323 13.4724C40.3064 14.994 41.7804 16.69 43.2386 18.5444C41.8121 18.481 40.3539 18.4335 38.8799 18.4335C37.39 18.4335 35.9159 18.4652 34.4736 18.5444C35.9001 16.69 37.3741 14.994 38.8323 13.4724ZM27.1034 22.808C26.3267 24.0285 25.5501 25.2806 24.821 26.5645C24.0919 27.8325 23.4103 29.1005 22.7605 30.3684C21.9046 28.2446 21.1755 26.1207 20.5732 24.0602C22.6495 23.5688 24.8368 23.1409 27.1034 22.808V22.808ZM12.7592 42.6521C7.14832 40.2588 3.51868 37.1205 3.51868 34.6321C3.51868 32.1436 7.14832 28.9895 12.7592 26.612C14.1223 26.0256 15.6122 25.5025 17.1496 25.0112C18.0531 28.1178 19.2418 31.3511 20.7158 34.6638C19.2577 37.9606 18.0848 41.1781 17.1972 44.2688C15.628 43.7775 14.1381 43.2386 12.7592 42.6521ZM21.2864 65.3017C19.1309 64.0654 18.1957 59.358 18.9248 53.3033C19.0992 51.8134 19.3845 50.2442 19.7332 48.6434C22.8397 49.4042 26.2316 49.9906 29.7979 50.371C31.9376 53.3033 34.1566 55.9661 36.3914 58.296C31.2243 63.0985 26.3743 65.7296 23.0775 65.7296C22.3642 65.7138 21.7619 65.5711 21.2864 65.3017V65.3017ZM58.8825 53.224C59.6274 59.2787 58.7081 63.9861 56.5684 65.2383C56.0929 65.5236 55.4747 65.6504 54.7456 65.6504C51.4647 65.6504 46.5988 63.0351 41.4317 58.2643C43.6507 55.9344 45.8697 53.2874 47.9777 50.3552C51.5598 49.9748 54.9517 49.3884 58.0583 48.6117C58.4228 50.2126 58.7081 51.75 58.8825 53.224V53.224ZM64.9847 42.6521C63.6216 43.2386 62.1317 43.7616 60.5942 44.253C59.6908 41.1464 58.5021 37.913 57.028 34.6004C58.4862 31.3036 59.6591 28.0861 60.5467 24.9953C62.1158 25.4867 63.6057 26.0256 65.0005 26.612C70.6114 29.0054 74.241 32.1436 74.241 34.6321C74.2252 37.1205 70.5955 40.2747 64.9847 42.6521V42.6521Z" fill="#0E0E0E"/>
<path d="M38.8635 41.8754C42.864 41.8754 46.1069 38.6325 46.1069 34.632C46.1069 30.6316 42.864 27.3886 38.8635 27.3886C34.8631 27.3886 31.6201 30.6316 31.6201 34.632C31.6201 38.6325 34.8631 41.8754 38.8635 41.8754Z" fill="#0E0E0E"/>
</svg>
