<svg width="78" height="59" viewBox="0 0 78 59" fill="none" xmlns="http://www.w3.org/2000/svg" matTooltip="Aprendi na Origamid">
<path d="M66.9335 33.467C64.2149 33.4823 61.8608 34.1352 59.8865 35.1074C59.1575 33.6645 58.4285 32.4038 58.3071 31.4624C58.1704 30.3689 58.0034 29.7005 58.1704 28.3945C58.3374 27.0882 59.0967 25.2354 59.0967 25.0835C59.0814 24.9468 58.9295 24.2786 57.3654 24.2634C55.8012 24.2482 54.4494 24.5671 54.2975 24.9772C54.1456 25.3872 53.8419 26.3289 53.6444 27.3009C53.3711 28.7285 50.5158 33.7859 48.8908 36.4437C48.3592 35.4109 47.9036 34.4997 47.8123 33.7706C47.6758 32.6772 47.5086 32.0088 47.6758 30.7028C47.8428 29.3966 48.6022 27.5439 48.6022 27.392C48.587 27.2553 48.4351 26.587 46.871 26.5719C45.3065 26.5567 43.955 26.8756 43.8031 27.2857C43.6512 27.6957 43.4842 28.6677 43.1501 29.6093C42.831 30.551 39.0341 38.9952 38.0469 41.1974C37.5457 42.3212 37.1055 43.2173 36.7864 43.8248C36.4674 44.4323 36.7712 43.8704 36.7408 43.9311C36.4674 44.4475 36.3156 44.736 36.3156 44.736V44.7514C36.1029 45.1311 35.8751 45.4954 35.7687 45.4954C35.6927 45.4954 35.5408 44.4779 35.799 43.0808C36.361 40.1494 37.7278 35.5782 37.7128 35.4111C37.7128 35.3352 37.9708 34.5301 36.8318 34.1202C35.7231 33.7101 35.3284 34.3935 35.2371 34.3935C35.146 34.3935 35.07 34.6365 35.07 34.6365C35.07 34.6365 36.3002 29.4881 32.716 29.4881C30.4682 29.4881 27.37 31.9333 25.8361 34.1659C24.8641 34.6974 22.7986 35.8212 20.6116 37.0211C19.7763 37.4767 18.9106 37.9627 18.0905 38.4032L17.9236 38.2206C13.58 33.5885 5.5458 30.308 5.87992 24.0811C6.00142 21.8182 6.79117 15.8495 21.3105 8.6203C33.2023 2.6972 42.7248 4.32225 44.3801 7.93687C46.7341 13.1006 39.2923 22.6991 26.9299 24.0811C22.2218 24.6127 19.7461 22.7902 19.1235 22.1068C18.4705 21.3929 18.3793 21.3626 18.1363 21.4993C17.7415 21.7119 17.9845 22.3497 18.1363 22.7294C18.5008 23.6862 20.0196 25.3872 22.6014 26.2377C24.8642 26.9819 30.3926 27.392 37.0751 24.8101C44.5625 21.9093 50.4097 13.86 48.6935 7.13193C46.9469 0.282394 35.5867 -1.96535 24.8492 1.8467C18.4551 4.12482 11.5297 7.67868 6.54817 12.3412C0.625064 17.8695 -0.316557 22.6991 0.0783163 24.7038C1.46053 31.8571 11.317 36.5196 15.2658 39.9672C15.0683 40.0733 14.8861 40.1797 14.719 40.2709C12.7446 41.2428 5.22686 45.1765 3.34362 49.3377C1.21737 54.0458 3.67774 57.4327 5.31799 57.8884C10.3906 59.3008 15.5847 56.7645 18.3944 52.588C21.1887 48.4114 20.8547 42.9895 19.5638 40.5139L19.5181 40.4228L21.0672 39.5116C22.0697 38.9193 23.0569 38.3725 23.9225 37.9015C23.4366 39.2228 23.0871 40.7872 22.905 43.0653C22.6924 45.7384 23.7859 49.201 25.2287 50.5679C25.8666 51.16 26.626 51.1754 27.0968 51.1754C28.7674 51.1754 29.5268 49.7932 30.3621 48.1379C31.3948 46.1179 32.3061 43.7791 32.3061 43.7791C32.3061 43.7791 31.167 50.1122 34.2804 50.1122C35.4195 50.1122 36.5586 48.6391 37.0749 47.8797V47.8949C37.0749 47.8949 37.1053 47.8493 37.1661 47.743C37.2298 47.6488 37.2906 47.5526 37.3483 47.4546V47.4242C37.8039 46.6345 38.8215 44.8272 40.3402 41.8352C42.2993 37.9776 44.1827 33.148 44.1827 33.148C44.1827 33.148 44.3649 34.3326 44.9268 36.2766C45.2608 37.431 45.9898 38.6914 46.5517 39.9216C46.0961 40.5595 45.8227 40.9241 45.8227 40.9241L45.8379 40.9393C45.4736 41.4253 45.0634 41.9419 44.6383 42.4581C43.0892 44.3109 41.2363 46.4222 40.9933 47.0297C40.7047 47.7433 40.7655 48.2749 41.3274 48.7003C41.7375 49.004 42.4665 49.0646 43.241 49.004C44.6383 48.9127 45.6103 48.5636 46.0963 48.3508C46.8556 48.0774 47.7213 47.6674 48.5566 47.0599C50.0754 45.9362 51.0018 44.3415 50.9107 42.2152C50.8651 41.0458 50.4854 39.8915 50.0146 38.7981C50.1513 38.6006 50.2882 38.403 50.4247 38.1906C52.8243 34.6821 54.6772 30.8246 54.6772 30.8246C54.6772 30.8246 54.8594 32.0093 55.4214 33.9533C55.7098 34.9404 56.287 36.0189 56.8034 37.082C54.5557 38.9197 53.1433 41.046 52.6573 42.4432C51.7612 45.0251 52.4598 46.1945 53.7811 46.4679C54.3733 46.5894 55.2239 46.316 55.8617 46.0426C56.6514 45.7844 57.6082 45.3438 58.4892 44.6909C60.008 43.5671 61.466 42.0028 61.39 39.8917C61.3445 38.9197 61.0863 37.9629 60.737 37.0517C62.6506 36.2619 65.126 35.8063 68.2699 36.186C75.0284 36.9757 76.3649 41.1978 76.1068 42.9596C75.8486 44.7215 74.4362 45.6933 73.9652 45.9971C73.4944 46.2856 73.3426 46.3921 73.3881 46.6046C73.4489 46.9236 73.6615 46.9083 74.0716 46.8477C74.6335 46.7564 77.6254 45.4049 77.7469 42.1549C77.9292 37.9778 73.9652 33.4215 66.9335 33.467V33.467ZM14.8101 51.0388C12.5776 53.484 9.43378 54.4104 8.09729 53.6207C6.65448 52.7854 7.21626 49.186 9.96534 46.5889C11.636 45.0094 13.8078 43.5514 15.2354 42.6554C15.5543 42.4579 16.0403 42.1695 16.6174 41.8201C16.7086 41.7595 16.7693 41.7289 16.7693 41.7289C16.8756 41.6682 16.9971 41.5922 17.1186 41.5163C18.1362 45.222 17.1642 48.4722 14.8101 51.0388V51.0388ZM31.1366 39.9368C30.3621 41.8352 28.7218 46.7104 27.7347 46.437C26.884 46.2092 26.3678 42.5187 27.5674 38.8737C28.1749 37.0359 29.4659 34.849 30.2252 33.9984C31.4556 32.6315 32.7919 32.1759 33.1262 32.7378C33.5211 33.467 31.6226 38.7522 31.1366 39.9368ZM44.6079 46.3763C44.2738 46.5435 43.97 46.6648 43.8333 46.5739C43.727 46.5131 43.9699 46.2853 43.9699 46.2853C43.9699 46.2853 45.6557 44.478 46.3239 43.6427C46.7036 43.1569 47.1592 42.5949 47.6452 41.9569V42.1391C47.6454 44.326 45.5495 45.784 44.6079 46.3763ZM54.996 44.007C54.753 43.8248 54.7835 43.2629 55.6035 41.5011C55.9226 40.8025 56.6514 39.6331 57.912 38.5244C58.0638 38.98 58.1551 39.4203 58.1398 39.8305C58.1247 42.5642 56.1807 43.5818 54.996 44.007Z" fill="#0E0E0E"/>
</svg>
