<svg width="78" height="78" viewBox="0 0 78 78" fill="none" xmlns="http://www.w3.org/2000/svg" matTooltip="Aprendi na Origamid e Udemy">
<path d="M0 0H77.7597V77.7597H0V0Z" fill="#0E0E0E"/>
<path d="M37.3368 28.7954H41.0668V35.2349H30.9823V63.8844L30.715 63.9574C30.3505 64.0545 25.5513 64.0545 24.5186 63.9452L23.6924 63.8723V35.2349H13.6079V28.7954L16.8033 28.7589C18.5529 28.7346 23.0484 28.7346 26.7906 28.7589C30.5328 28.7832 35.2713 28.7954 37.3368 28.7954V28.7954ZM65.8041 60.847C64.3218 62.4143 62.7302 63.2891 60.0815 64.0059C58.9272 64.3218 58.7328 64.334 56.1327 64.3218C53.5327 64.3097 53.3261 64.3097 52.0625 63.9816C48.7942 63.1433 46.1576 61.5031 44.3594 59.1824C43.8491 58.5263 43.0108 57.1655 43.0108 56.9954C43.0108 56.9468 43.1323 56.8375 43.2902 56.7646C43.4482 56.6917 43.7762 56.4851 44.0435 56.3272C44.3108 56.1692 44.7968 55.8776 45.1249 55.7075C45.4529 55.5374 46.4006 54.9785 47.2268 54.4804C48.053 53.9822 48.8063 53.5813 48.8914 53.5813C48.9764 53.5813 49.1344 53.7514 49.2559 53.9579C49.9849 55.1851 51.6859 56.7524 52.8887 57.287C53.6299 57.6029 55.2701 57.9553 56.0598 57.9553C56.7888 57.9553 58.1253 57.6394 58.8422 57.3113C59.6076 56.959 59.9964 56.6066 60.4581 55.9019C60.774 55.4038 60.8105 55.2701 60.7983 54.3224C60.7983 53.4476 60.7497 53.2046 60.5067 52.8037C59.8263 51.6859 58.9029 51.1027 55.1608 49.4503C51.2971 47.7372 49.5596 46.7166 48.1502 45.3436C47.1053 44.323 46.8988 44.0436 46.2427 42.7678C45.3922 41.1276 45.2828 40.593 45.2707 38.1508C45.2585 36.4377 45.295 35.8788 45.4772 35.2956C45.7324 34.4208 46.5586 32.732 46.9352 32.3067C47.7128 31.3955 47.9923 31.116 48.539 30.6665C50.1914 29.3057 52.7672 28.4066 55.2337 28.3215C55.5131 28.3215 56.4365 28.3701 57.2991 28.4309C59.7777 28.6374 61.4666 29.2449 63.0947 30.545C64.3218 31.517 66.1808 33.8012 65.9985 34.1049C65.877 34.2872 61.0292 37.519 60.7133 37.6162C60.5189 37.677 60.3852 37.6041 60.1179 37.2882C58.4655 35.3078 57.7973 34.8825 56.1935 34.7853C55.0514 34.7124 54.4439 34.8461 53.6785 35.3564C52.8766 35.891 52.4878 36.705 52.4878 37.8349C52.4999 39.4873 53.1317 40.2649 55.4645 41.4192C56.9711 42.1603 58.259 42.7678 58.3562 42.7678C58.502 42.7678 61.6245 44.323 62.4386 44.809C66.2294 47.0325 67.7724 49.3167 68.1733 53.2532C68.4649 56.2178 67.6266 58.9273 65.8041 60.847V60.847Z" fill="#F3F3F3"/>
</svg>
