<svg width="90" height="83" viewBox="0 0 90 83" fill="none" xmlns="http://www.w3.org/2000/svg" matTooltip="Aprendi em projetos">
<path d="M67.5402 24.8935L46.0243 56.0025C45.7962 56.3323 45.4664 56.5794 45.0847 56.7062C44.7031 56.8331 44.2905 56.8319 43.9097 56.7045C43.5288 56.5764 43.2005 56.3282 42.9743 55.9977C42.7483 55.6667 42.6367 55.2714 42.6569 54.8719L43.518 37.6965L29.6165 34.7483C29.3194 34.6854 29.0426 34.5504 28.8106 34.3554C28.5785 34.1605 28.3984 33.9115 28.2863 33.6305C28.1741 33.3496 28.1333 33.0453 28.1675 32.7447C28.2017 32.4442 28.3097 32.1565 28.4821 31.9072L49.9982 0.798168C50.2263 0.468149 50.5562 0.221126 50.9379 0.0944892C51.3196 -0.0321479 51.7321 -0.031493 52.113 0.096454C52.4939 0.224341 52.8223 0.472495 53.0484 0.803288C53.2744 1.13402 53.3859 1.52929 53.3657 1.92915L52.5046 19.1047L66.406 22.0527C66.703 22.1156 66.9799 22.2506 67.2121 22.4455C67.4443 22.6405 67.6241 22.8895 67.736 23.1704C67.8486 23.4514 67.889 23.7556 67.8551 24.0562C67.8212 24.3568 67.7128 24.6442 67.5402 24.8935Z" fill="#0E0E0E"/>
<path d="M45.0086 82.1028C44.4363 82.1034 43.8695 81.9914 43.3408 81.7723C42.8121 81.5532 42.3319 81.2317 41.9278 80.8269L21.5978 60.4982C20.7845 59.6808 20.3286 58.574 20.3301 57.4207C20.3316 56.2675 20.7904 55.1613 21.606 54.3462C22.4215 53.5305 23.5272 53.0715 24.6805 53.0697C25.8338 53.0685 26.9408 53.524 27.7585 54.3373L45.0086 71.5854L82.5879 34.0078C83.4072 33.2018 84.5116 32.7521 85.6607 32.7568C86.8104 32.7615 87.9112 33.2201 88.7233 34.0327C89.536 34.8454 89.995 35.9462 89.9998 37.0955C90.004 38.2448 89.5545 39.3493 88.7483 40.1685L48.0885 80.8269C47.6845 81.2323 47.2044 81.5532 46.6758 81.7723C46.1473 81.9914 45.5807 82.1034 45.0086 82.1028Z" fill="#0E0E0E"/>
<path d="M44.9911 82.1028C45.5633 82.1034 46.1301 81.9914 46.6588 81.7723C47.1875 81.5532 47.6676 81.2317 48.0718 80.8269L68.4018 60.4982C69.2151 59.6808 69.6712 58.574 69.6694 57.4207C69.6682 56.2675 69.2092 55.1613 68.3935 54.3462C67.5778 53.5305 66.4722 53.0715 65.319 53.0697C64.1657 53.0685 63.0589 53.524 62.2409 54.3373L44.9911 71.5854L7.41174 34.0078C6.5925 33.2018 5.48795 32.7521 4.33875 32.7568C3.18949 32.7615 2.08863 33.2201 1.27601 34.0327C0.46336 34.8454 0.00475146 35.9462 3.5612e-05 37.0955C-0.0046079 38.2448 0.445022 39.3493 1.25102 40.1685L41.911 80.8269C42.3151 81.2323 42.7952 81.5532 43.3238 81.7723C43.8523 81.9914 44.419 82.1034 44.9911 82.1028Z" fill="#0E0E0E"/>
</svg>
